<?xml version="1.0" encoding="utf-8"?>
<svg version="1.1" xmlns="http://www.w3.org/2000/svg" x="0px" y="0px" viewBox="0 0 73 47" style="enable-background:new 0 0 73 47;" xml:space="preserve">
<style type="text/css">
	.st0{fill:#FFFFFF;}
	.st1{fill:#E34325;}
</style>
	<path class="st0" d="M16.9,43.1c1,0.6,2.4,1.1,3.9,1.1c2.2,0,3.5-1.2,3.5-2.9c0-1.6-0.9-2.5-3.2-3.3c-2.7-1-4.4-2.4-4.4-4.7 c0-2.6,2.2-4.5,5.4-4.5c1.7,0,3,0.4,3.7,0.8l-0.6,1.8c-0.5-0.3-1.7-0.8-3.2-0.8c-2.3,0-3.2,1.4-3.2,2.5c0,1.6,1,2.3,3.3,3.2 c2.8,1.1,4.3,2.5,4.3,4.9c0,2.6-1.9,4.8-5.9,4.8c-1.6,0-3.4-0.5-4.3-1.1L16.9,43.1z"/>
	<path class="st0" d="M29.5,29.2c1-0.2,2.4-0.3,4.2-0.3c2.1,0,3.7,0.5,4.7,1.4c0.9,0.8,1.5,2,1.5,3.5c0,1.5-0.4,2.7-1.3,3.6 c-1.1,1.2-3,1.8-5.1,1.8c-0.6,0-1.2,0-1.7-0.1v6.7h-2.2V29.2z M31.7,37.3c0.5,0.1,1.1,0.2,1.8,0.2c2.6,0,4.2-1.3,4.2-3.6 c0-2.2-1.6-3.3-4-3.3c-0.9,0-1.7,0.1-2,0.2V37.3z"/>
	<path class="st0" d="M46.8,29H49v11.2c0,4.4-2.2,5.8-5.1,5.8c-0.8,0-1.8-0.2-2.3-0.4l0.3-1.8c0.4,0.2,1.1,0.3,1.8,0.3 c1.9,0,3.1-0.9,3.1-4.1V29z"/>
	<path class="st0" d="M66.7,38.4c-0.1-2.3-0.3-5.1-0.2-7.2h-0.1c-0.6,2-1.3,4-2.1,6.3l-3,8.1h-1.6l-2.7-8c-0.8-2.4-1.5-4.5-1.9-6.5 h0c0,2.1-0.2,4.9-0.3,7.4l-0.4,7.2h-2.1L53.3,29h2.8l2.9,8.1c0.7,2.1,1.3,3.9,1.7,5.6h0.1c0.4-1.7,1-3.5,1.8-5.6l3-8.1h2.8l1,16.7 h-2.1L66.7,38.4z"/>
	<polygon class="st1" points="36.6,1 1,12.5 1,18.9 36.6,7.5 72,18.9 72,12.4 "/>
	<polygon class="st0" points="36.6,9.9 1,21.4 1,27.8 36.6,16.4 72,27.8 72,21.3 	"/>
	<polygon class="st0" points="1,34.5 7.5,34.5 7.5,46 13.9,46 13.9,34.5 13.9,28.3 13.9,28.1 1,28.1 	"/>
</svg>
