<?xml version="1.0" encoding="utf-8"?>
<!-- Generator: Adobe Illustrator 22.0.1, SVG Export Plug-In . SVG Version: 6.00 Build 0)  -->
<svg version="1.1" id="Calque_1" xmlns="http://www.w3.org/2000/svg" xmlns:xlink="http://www.w3.org/1999/xlink" x="0px" y="0px"
	 viewBox="0 0 200 80" enable-background="new 0 0 200 80" xml:space="preserve">
<g>
	<path fill="#FFFFFF" d="M29.3,37.5c-0.6-0.5-1.2-1-1.7-1.5c-0.5-0.4-1-0.9-1.4-1.2c-0.4-0.4-0.6-0.8-0.7-1.1
		c-0.2-1.6,0.1-2.7,1-3.2c0.8-0.4,2.3-0.5,4.6-0.4c1.6-0.2,2.7-0.6,3.3-1.2c0.3-0.4,0.5-0.9,0.4-1.6c0.5,0,0.9-0.2,1.3-0.5
		c0.4-0.3,0.7-0.6,0.9-1.1c0.5-1,0.3-2-0.7-2.9c-0.6-0.4-1.1-0.8-1.6-1.2c-0.6-0.4-1.2-0.6-2-0.8c-2.3-0.4-4.5-0.4-6.8,0.1
		c-1.1,0.3-2.6,0.9-4.5,1.9c-1.6,0.9-2.9,2-4,3.4C17,27,16.5,27.9,16.1,29c-0.4,1-0.6,2.3-0.8,3.9c-0.1,1.6,0.2,3,1,4.3
		s1.9,2.5,3.2,3.5c0.3,0.3,0.7,0.7,1.1,1c0.4,0.3,0.8,0.7,1.2,1c0.9,0.8,1.2,1.4,1.1,2c-0.2,0.8-1.4,1.5-3.4,2.1
		c-0.4,0.2-1,0.3-1.6,0.2c-0.6,0-1.7-0.2-3.4-0.5c-2.1-0.5-3.6-0.1-4.3,1c-0.5,1-0.7,1.9-0.5,2.8c0.2,0.9,0.7,1.7,1.4,2.4
		c0.7,0.7,1.7,1.2,2.8,1.6c1.2,0.4,2.5,0.6,3.9,0.5c2.3,0,4.2-0.3,5.9-1c3.2-1.3,5.4-3.2,6.8-5.7c1.8-3.4,1.9-6.3,0.4-8.9
		C30.4,38.7,29.9,38.1,29.3,37.5z"/>
	<path fill="#FFFFFF" d="M53.3,34.4c0.3-0.4,0.5-0.8,0.7-1.3c0.1-0.5,0.1-0.9,0-1.3c-0.1-0.4-0.4-0.7-0.9-0.9
		c-0.5-0.2-0.9-0.3-1.2-0.3h-0.6c-0.2,0-0.5,0-0.8-0.1c-0.5,0.1-0.9,0.1-1.3,0.2c-0.2,0-0.3,0.1-0.5,0.1c-0.2,0-0.4,0.1-0.6,0.1
		c0.1-0.1,0.2-0.2,0.3-0.3c0.1-0.1,0.2-0.3,0.4-0.6l1.4-2.8c0.3-0.6,0.5-1,0.7-1.4c0.2-0.3,0.3-0.7,0.5-0.9c0.1-0.3,0.2-0.6,0.4-0.9
		c0.1-0.3,0.3-0.8,0.5-1.4c0.2-0.6,0.1-1.3-0.3-1.9c-0.4-0.6-0.9-1.1-1.4-1.4c-0.6-0.3-1.2-0.5-1.8-0.6c-0.6,0-1,0.1-1.2,0.5
		c-0.5,0.3-0.9,0.5-1.2,0.6c-0.3,0.1-0.6,0.2-0.7,0.2c-0.4,0.1-0.7,0.6-1,1.3L44,21.6l0,0.2c-1,1.4-1.7,3.1-2.3,5.1
		c-0.2,0.9-0.5,1.7-0.6,2.5c-0.2,0.8-0.3,1.6-0.5,2.4c-0.3,0-0.5,0-0.6,0.1c0,0-0.1,0.1-0.1,0.1c-0.1,0-0.4,0.1-0.9,0.3
		c-0.5,0.1-1.2,0.4-2,0.7c-0.4,0.2-1.1,0.4-1.9,0.6c-0.7,0.3-1.2,0.7-1.5,1.2c-0.2,0.5-0.3,1-0.2,1.5c0.1,0.5,0.3,0.9,0.7,1.3
		c0.4,0.4,0.8,0.6,1.2,0.6h0c0.6,0,1.1-0.2,1.5-0.4c0.2-0.1,0.6-0.2,1.2-0.2c-1.6,5.7-2.6,10.9-3.1,15.7c-0.1,0.4-0.1,0.7,0.2,1
		c0.2,0.3,0.6,0.6,1.3,0.9c0.6,0.3,1.4,0.5,2.4,0.6c0,0,0.2-0.1,0.4-0.1c0.2,0,0.5-0.1,0.7-0.2c0.6-0.3,1.6-2.4,2.9-6.3
		c0.4-1.2,0.8-2.4,1.2-3.6c0.4-1.3,0.8-2.5,1.1-3.6c0.4-1.2,0.7-2.3,1-3.3c0.3-1,0.6-1.8,0.9-2.5v0l0.2-0.3c1-0.1,2.7-0.4,5.1-1.1
		C52.5,35,53,34.8,53.3,34.4z"/>
	<path fill="#FFFFFF" d="M71.3,37.8c-0.2-1-0.4-1.7-0.7-2.1c-0.5-0.7-1.1-0.9-1.8-0.6c0,0,0,0-0.1,0l-0.2,0c0-0.7-0.5-1.3-1.5-1.7
		c-0.4-0.2-0.8-0.3-1.2-0.4c-0.4-0.1-0.8-0.2-1.2-0.2c-0.4-0.1-0.8-0.1-1.3,0c-1.5,0.2-3,0.7-4.5,1.5c-2.1,1.2-4,2.6-5.6,4.4
		c-1.4,1.5-2.4,3.3-3,5.3c-0.8,3-0.9,5.6-0.2,7.5c0.3,1,1,1.8,2,2.2c1,0.5,2.1,0.8,3.2,0.9c1.2,0.1,2.4,0,3.5-0.2
		c1.2-0.2,2.1-0.5,2.7-0.8c0.6-0.3,1.1-0.6,1.3-0.7c0.2-0.2,0.4-0.5,0.7-0.9c-0.2,0.8,0.3,1.4,1.4,1.8c1.1,0.4,2.1,0.4,3.2,0
		c1.2-0.4,1.8-1,1.8-2c0.1-0.9,0.4-3.7,1-8.4C71.2,40.9,71.4,39.1,71.3,37.8z M61.4,44.4c-0.1,0.6-0.3,1.1-0.5,1.4
		c0.1-0.1,0.2-0.2,0.2-0.4c-0.3,0.5-0.5,1-0.7,1.5c-0.2,0.5-0.4,0.9-0.7,1.2c-0.6,0.7-1.5,0.9-2.8,0.6c-1.5-0.6-1.5-1.6-0.2-3
		c1.2-1.3,2.9-2.4,5.1-3.3C61.7,43.2,61.6,43.8,61.4,44.4z"/>
	<path fill="#FFFFFF" d="M106.6,34.4c0.3-0.4,0.5-0.8,0.7-1.3c0.1-0.5,0.1-0.9,0-1.3c-0.1-0.4-0.4-0.7-0.9-0.9
		c-0.5-0.2-0.9-0.3-1.2-0.3h-0.6c-0.2,0-0.5,0-0.8-0.1c-0.5,0.1-0.9,0.1-1.3,0.2c-0.2,0-0.3,0.1-0.5,0.1c-0.2,0-0.4,0.1-0.6,0.1
		c0.1-0.1,0.2-0.2,0.3-0.3c0.1-0.1,0.2-0.3,0.4-0.6l1.4-2.8c0.3-0.6,0.5-1,0.7-1.4c0.2-0.3,0.3-0.7,0.5-0.9c0.1-0.3,0.2-0.6,0.4-0.9
		c0.1-0.3,0.3-0.8,0.5-1.4c0.2-0.6,0.1-1.3-0.3-1.9c-0.4-0.6-0.9-1.1-1.4-1.4c-0.6-0.3-1.2-0.5-1.8-0.6c-0.6,0-1,0.1-1.2,0.5
		c-0.5,0.3-0.9,0.5-1.2,0.6c-0.3,0.1-0.6,0.2-0.7,0.2c-0.4,0.1-0.7,0.6-1,1.3l-0.4,0.4l0,0.2c-1,1.4-1.7,3.1-2.3,5.1
		c-0.2,0.9-0.5,1.7-0.6,2.5c-0.2,0.8-0.3,1.6-0.5,2.4c-0.3,0-0.5,0-0.6,0.1c0,0-0.1,0.1-0.1,0.1c-0.1,0-0.4,0.1-0.9,0.3
		c-0.5,0.1-1.2,0.4-2,0.7c-0.4,0.1-0.9,0.3-1.6,0.5c-0.2-0.4-0.5-0.7-1-0.8c0.4-0.9,0.1-1.4-0.8-1.5c-0.4,0-0.9,0.1-1.5,0.2
		C84.8,31.7,84,32,83,32.4c-1,0.4-1.7,0.9-2.3,1.4c0.1-0.6,0-1-0.4-1.3s-1-0.4-1.6-0.2s-1.3,0.4-2,0.9c-0.7,0.5-1.2,1.3-1.6,2.2
		l-1.4,5.1c-0.1,0.5-0.4,1.3-0.7,2.3c-0.4,1-0.9,2.5-1.5,4.5c-0.7,2-1,3.5-1.1,4.7c-0.2,1.7,0.5,2.7,1.9,3.1
		c1.2,0.4,2.6,0.1,4.1-0.7c1.6-0.9,2.5-2,2.7-3.3c0.7-3.6,1.4-6.3,2.2-8.3c0.5-1.2,1.1-2.1,1.7-2.9c0.6-0.8,1.5-1.3,2.4-1.5
		c0.7-0.2,1.4-0.4,1.9-0.8c0,0,0,0,0,0.1c0.4,0.4,0.8,0.6,1.2,0.6h0c0.6,0,1.1-0.2,1.5-0.4c0.2-0.1,0.6-0.2,1.2-0.2
		c-1.6,5.7-2.6,10.9-3.1,15.7c-0.1,0.4-0.1,0.7,0.2,1c0.2,0.3,0.6,0.6,1.3,0.9c0.6,0.3,1.4,0.5,2.4,0.6c0,0,0.2-0.1,0.4-0.1
		c0.2,0,0.5-0.1,0.7-0.2c0.6-0.3,1.6-2.4,2.9-6.3c0.4-1.2,0.8-2.4,1.2-3.6c0.4-1.3,0.8-2.5,1.1-3.6c0.4-1.2,0.7-2.3,1-3.3
		c0.3-1,0.6-1.8,0.9-2.5v0l0.2-0.3c1-0.1,2.7-0.4,5.1-1.1C105.9,35,106.3,34.8,106.6,34.4z"/>
	<path fill="#FFFFFF" d="M120.1,49.7c-0.1-0.1-0.3-0.1-0.4-0.1c-0.1,0-0.2,0-0.4-0.1c-0.1-0.1-0.3-0.4-0.5-0.9
		c-0.6-0.5-1.1-0.7-1.8-0.7c-0.6,0-1.3,0.1-1.9,0.4c-0.6,0.2-1.3,0.4-1.9,0.7c-0.6,0.2-1.1,0.3-1.6,0.2c-0.7-0.4-1.2-0.7-1.2-1
		c0.8-0.1,2-0.3,3.8-0.6c0.7-0.1,1.2-0.3,1.7-0.4s1-0.3,1.5-0.6c1.5-0.7,2.5-1.6,3.3-2.5c0.7-0.9,1.3-2.5,1.7-4.8
		c0.2-1.7,0.2-3.1-0.2-4c-0.8-1.8-2.3-2.7-4.5-2.8c-2-0.1-3.9,0.3-5.8,1.1c-1.6,0.7-3,1.8-4.3,3.3c-1.5,1.8-2.6,3.4-3.3,4.9
		c-1.5,3.3-1.9,6.2-1.2,8.7c0.5,1.9,1.8,3.1,3.6,3.7c1.3,0.6,3.2,0.8,5.6,0.6c1.1-0.1,2.2-0.2,3.3-0.5c1.1-0.2,2.1-0.5,2.9-0.9
		c0.8-0.4,1.4-0.8,1.8-1.3c0.4-0.5,0.5-1,0.2-1.6C120.4,50.1,120.2,49.7,120.1,49.7z M111.6,42.5c0.8-2,2-2.8,3.4-2.5
		c0.1,0.3,0,0.7-0.2,1.1c-0.2,0.5-0.5,1-0.9,1.4c-1,1.2-2,1.7-3,1.6C111.2,43.5,111.4,43,111.6,42.5z"/>
	<path fill="#FFFFFF" d="M139.9,35.4c0.2-0.6,0.1-1.2-0.1-1.7c-0.2-0.5-0.6-0.8-1-0.9c0.4-0.9,0.1-1.4-0.8-1.5
		c-0.4,0-0.9,0.1-1.5,0.2c-0.6,0.2-1.4,0.5-2.3,0.9c-1,0.4-1.7,0.9-2.3,1.4c0.1-0.6,0-1-0.4-1.3c-0.4-0.3-1-0.4-1.6-0.2
		s-1.3,0.4-2,0.9c-0.7,0.5-1.2,1.3-1.6,2.2l-1.4,5.1c-0.1,0.5-0.4,1.3-0.7,2.3c-0.4,1-0.9,2.5-1.5,4.5c-0.7,2-1,3.5-1.1,4.7
		c-0.2,1.7,0.5,2.7,1.9,3.1c1.2,0.4,2.6,0.1,4.1-0.7c1.6-0.9,2.5-2,2.7-3.3c0.7-3.6,1.4-6.3,2.2-8.3c0.5-1.2,1.1-2.1,1.7-2.9
		c0.6-0.8,1.5-1.3,2.4-1.5c1-0.2,1.8-0.6,2.3-1.2C139.3,36.6,139.7,36,139.9,35.4z"/>
	<path fill="#FFFFFF" d="M157.7,48.3c-0.5-1.5-1.3-3-2.3-4.4c-1.3-1.8-2.7-2.7-4.2-2.9c1-0.2,2-0.6,3-0.9c3.1-1.1,5.9-3.3,8.4-6.5
		c0.6-0.7,0.9-1.7,0.8-3.1c-0.1-1.4-0.4-2.2-1.1-2.4l-1-0.4c-0.3-0.1-0.5-0.2-0.8-0.2c-0.2,0-0.5,0-0.8,0.1
		c-0.3,0.1-0.7,0.3-1.4,0.7c-0.7,0.4-2.2,1.5-4.6,3.3c-1.3,1-2.4,1.7-3.3,2.3c0.2-0.5,0.8-1.7,1.8-3.5c0.6-1.1,1.2-2.2,1.8-3.3
		c0.7-1.5,1.1-2.4,1.3-2.5l0.3-0.4l0.4-0.7c0.1-0.1,0.1-0.1,0-0.1c0.6-1.4,0.4-2.4-0.7-3.1c-0.4-0.3-1-0.5-1.6-0.5
		c-0.6-0.1-1.3-0.1-1.9-0.1c-0.6,0-1.2,0.1-1.7,0.1c-0.5,0.1-0.9,0.2-1.2,0.3c-0.2,0.1-0.5,0.2-0.7,0.3c-0.2,0.1-0.4,0.2-0.6,0.4
		c-0.2,0.2-0.4,0.6-0.7,1.2c-1-0.4-1.7,0.1-2.2,1.4c-0.6,1.2-1.2,2.7-1.6,4.5c-0.2,0.8-0.4,1.6-0.6,2.4c-0.2,0.8-0.5,1.9-0.9,3.4
		s-0.9,3.3-1.5,5.5c-0.6,2.2-1.3,4.8-2.1,7.7c-1.2,4.1-1.6,6.6-1.4,7.5c0.4,0.9,1.3,1.4,2.6,1.6c1.1,0.1,2.1-0.1,3-0.7
		c0.5-0.8,1-1.7,1.4-2.7c0.4-1,0.8-2,1.2-2.9l0.7-1.9c0.2,0.1,0.3,0.1,0.3,0.1c0.7,0.1,1.8,0.7,3.5,2c0.7,0.6,1.4,1.1,2.1,1.8
		c0.7,0.6,1.4,1.2,2,1.7c1.5,1.2,2.4,1.7,2.9,1.6c1-0.2,1.7-0.4,2.2-0.6c0.4-0.2,0.7-0.5,0.7-0.9c0-0.4-0.1-1-0.3-1.7
		C158.5,51,158.2,49.9,157.7,48.3z"/>
	<path fill="#FFFFFF" d="M170,28.3c0.8,0.4,1.9,0.5,3.3,0.2c1.4-0.6,2.2-1.2,2.5-2s0.3-1.5-0.1-2.1c-0.3-0.7-0.9-1.1-1.8-1.2
		c-0.4-0.1-0.7-0.2-0.9-0.2c-0.2,0-0.6,0-1.2,0.1c-1.2,0.2-2.1,0.8-2.7,1.6c-0.5,0.7-0.7,1.3-0.6,1.9
		C168.7,27.3,169.2,27.9,170,28.3z"/>
	<path fill="#FFFFFF" d="M193.4,31.8c-0.1-0.4-0.4-0.7-0.9-0.9c-0.5-0.2-0.9-0.3-1.2-0.3h-0.6c-0.2,0-0.5,0-0.8-0.1
		c-0.5,0.1-0.9,0.1-1.3,0.2c-0.2,0-0.3,0.1-0.5,0.1c-0.2,0-0.4,0.1-0.6,0.1c0.1-0.1,0.2-0.2,0.3-0.3c0.1-0.1,0.2-0.3,0.4-0.6
		l1.4-2.8c0.3-0.6,0.5-1,0.7-1.4c0.2-0.3,0.3-0.7,0.5-0.9c0.1-0.3,0.2-0.6,0.4-0.9c0.1-0.3,0.3-0.8,0.5-1.4s0.1-1.3-0.3-1.9
		c-0.4-0.6-0.9-1.1-1.4-1.4c-0.6-0.3-1.2-0.5-1.8-0.6c-0.6,0-1,0.1-1.2,0.5c-0.5,0.3-0.9,0.5-1.2,0.6c-0.3,0.1-0.6,0.2-0.7,0.2
		c-0.4,0.1-0.7,0.6-1,1.3l-0.4,0.4l0,0.2c-1,1.4-1.7,3.1-2.3,5.1c-0.2,0.9-0.5,1.7-0.6,2.5c-0.2,0.8-0.3,1.6-0.5,2.4
		c-0.3,0-0.5,0-0.6,0.1c0,0-0.1,0.1-0.1,0.1c-0.1,0-0.4,0.1-0.9,0.3s-1.2,0.4-2,0.7c-0.4,0.2-1.1,0.4-1.9,0.6
		c-0.6,0.3-1.1,0.6-1.3,1c-0.1-0.7-0.6-1.2-1.5-1.6c-1.1-0.4-2.3-0.5-3.5-0.1c-1.3,0.3-2.2,0.9-2.6,1.9c-0.8,1.2-1.6,3-2.5,5.2
		c-1.8,4.6-2.9,8.4-3.3,11.4c-0.5,1.6-0.3,2.8,0.5,3.8c0.3,0.4,0.7,0.7,1.2,0.9c0.5,0.2,0.9,0.3,1.4,0.3c0.5,0,0.9-0.1,1.3-0.2
		c0.4-0.2,0.7-0.4,0.8-0.7c0.2-0.3,0.6-0.5,1.2-0.5c0.2,0,0.5-0.1,0.8-0.1c1-0.2,1.6-1.5,2.1-4c0.2-1.5,0.8-4.2,1.9-7.9
		c0.4-1.5,0.8-2.9,1.3-4.3c0.3-0.8,0.5-1.6,0.7-2.3c0.1,0.5,0.3,0.9,0.6,1.3c0.4,0.4,0.8,0.6,1.2,0.6h0c0.6,0,1.1-0.2,1.5-0.4
		c0.2-0.1,0.6-0.2,1.2-0.2c-1.6,5.7-2.6,10.9-3.1,15.7c-0.1,0.4-0.1,0.7,0.2,1c0.2,0.3,0.6,0.6,1.3,0.9c0.6,0.3,1.4,0.5,2.4,0.6
		c0,0,0.2-0.1,0.4-0.1c0.2,0,0.5-0.1,0.7-0.2c0.6-0.3,1.6-2.4,2.9-6.3c0.4-1.2,0.8-2.4,1.2-3.6c0.4-1.3,0.8-2.5,1.1-3.6
		c0.4-1.2,0.7-2.3,1-3.3c0.3-1,0.6-1.8,0.9-2.5v0l0.2-0.3c1-0.1,2.7-0.4,5.1-1.1c0.5,0,0.9-0.2,1.3-0.6c0.3-0.4,0.6-0.8,0.7-1.3
		S193.5,32.2,193.4,31.8z"/>
</g>
<circle fill="#E44011" cx="184.2" cy="68.2" r="2.8"/>
<circle fill="#E44011" cx="120.9" cy="12" r="3.5"/>
<circle fill="#E44011" cx="66.5" cy="59" r="1.6"/>
<circle fill="#E44011" cx="12.6" cy="73.3" r="2.4"/>
<circle fill="#E44011" cx="72.7" cy="15.9" r="0.9"/>
<line fill="none" stroke="#E44113" stroke-linecap="round" stroke-miterlimit="10" x1="14.3" y1="44.5" x2="30.5" y2="58.5"/>
<line fill="none" stroke="#E44113" stroke-linecap="round" stroke-miterlimit="10" x1="159.8" y1="136.8" x2="159.5" y2="137"/>
<rect x="148" y="51.8" transform="matrix(0.9504 -0.311 0.311 0.9504 -10.0949 50.449)" fill="none" stroke="#E44113" stroke-linecap="round" stroke-linejoin="round" stroke-miterlimit="10" width="10.3" height="10.3"/>
<line fill="none" stroke="#E44113" stroke-linecap="round" stroke-miterlimit="10" x1="180.3" y1="12" x2="189" y2="21.3"/>
<polygon fill="none" stroke="#E44113" stroke-linecap="round" stroke-linejoin="round" stroke-miterlimit="10" points="56.3,22.3 
	67.3,26.7 57,32.3 "/>
</svg>
