<?xml version="1.0" encoding="utf-8"?>
<svg version="1.1" xmlns="http://www.w3.org/2000/svg" x="0px" y="0px" viewBox="0 0 150 150" enable-background="new 0 0 150 150" xml:space="preserve">
<path fill="#78898F" d="M75,148c40.3,0,73-32.7,73-73c0-40.3-32.7-73-73-73S2,34.7,2,75C2,115.3,34.7,148,75,148"/>
<g>
	<circle fill="#FFFFFF" cx="75.3" cy="73.6" r="19.9"/>
	<circle fill="#FFFFFF" cx="45.9" cy="57.8" r="6.9"/>
	<circle fill="#FFFFFF" cx="62.3" cy="111.3" r="6.9"/>
	<circle fill="#FFFFFF" cx="93.8" cy="99" r="4.1"/>
	<circle fill="#FFFFFF" cx="72.6" cy="42.1" r="7.5"/>
	<circle fill="#FFFFFF" cx="106.8" cy="76.3" r="4.8"/>
	<circle fill="#FFFFFF" cx="41.1" cy="84.6" r="4.8"/>
	<circle fill="#FFFFFF" cx="101.4" cy="51.7" r="3.4"/>
	<circle fill="#FFFFFF" cx="73.3" cy="99" r="2.7"/>
	<circle fill="#FFFFFF" cx="47.2" cy="107.2" r="2.7"/>
	<circle fill="#FFFFFF" cx="48.6" cy="71.5" r="2.7"/>
	<circle fill="#FFFFFF" cx="60.9" cy="52.4" r="2.7"/>
	<circle fill="#FFFFFF" cx="107.5" cy="44.1" r="2.7"/>
	<circle fill="#FFFFFF" cx="52" cy="83.2" r="2.1"/>
	<circle fill="#FFFFFF" cx="35.6" cy="57.2" r="2.1"/>
	<circle fill="#FFFFFF" cx="83.5" cy="48.9" r="3.4"/>
	<circle fill="#FFFFFF" cx="58.9" cy="43.5" r="2.1"/>
	<circle fill="#FFFFFF" cx="58.9" cy="101" r="2.1"/>
	<circle fill="#FFFFFF" cx="58.9" cy="92.8" r="3.4"/>
	<circle fill="#FFFFFF" cx="83.5" cy="98.3" r="3.4"/>
	<circle fill="#FFFFFF" cx="115.1" cy="29.7" r="2.1"/>
	<circle fill="#FFFFFF" cx="86.3" cy="106.5" r="2.1"/>
	<circle fill="#FFFFFF" cx="112.3" cy="62.6" r="2.1"/>
	<circle fill="#FFFFFF" cx="39.7" cy="102.4" r="3.4"/>
	<circle fill="#FFFFFF" cx="117.8" cy="90" r="2.1"/>
	<circle fill="#FFFFFF" cx="74" cy="107.9" r="2.1"/>
	<circle fill="#FFFFFF" cx="31.5" cy="91.4" r="2.1"/>
	<circle fill="#FFFFFF" cx="93.1" cy="47.6" r="2.1"/>
	<circle fill="#FFFFFF" cx="98.6" cy="88.7" r="2.1"/>
	<circle fill="#FFFFFF" cx="82.9" cy="118.1" r="2.7"/>
	<circle fill="#FFFFFF" cx="108.2" cy="91.4" r="3.4"/>
	<circle fill="#FFFFFF" cx="48.6" cy="96.2" r="4.1"/>
	<circle fill="#FFFFFF" cx="102.1" cy="63.3" r="5.5"/>
	<circle fill="#FFFFFF" cx="99.3" cy="35.9" r="5.5"/>
	<circle fill="#FFFFFF" cx="39.7" cy="118.8" r="3.4"/>
</g>
</svg>
