<?xml version="1.0" encoding="utf-8"?>
<svg xmlns="http://www.w3.org/2000/svg" x="0px" y="0px" viewBox="0 0 150 150" enable-background="new 0 0 150 150" xml:space="preserve">
<path fill="#78898F" d="M75,148c40.3,0,73-32.7,73-73c0-40.3-32.7-73-73-73S2,34.7,2,75C2,115.3,34.7,148,75,148"/>
<g>
	<path fill="#FFFFFF" d="M39.7,113.2h70.6c1.5,0,2.7-1.2,2.7-2.7v-0.7c0-1.5-1.2-2.7-2.7-2.7H39.7c-1.5,0-2.7,1.2-2.7,2.7v0.7 C37,112,38.2,113.2,39.7,113.2z"/> <path fill="#FFFFFF" d="M115.9,117H34.2c-1.7,0-3.1,1.4-3.1,3.1v0.8c0,1.7,1.4,3.1,3.1,3.1h81.6c1.7,0,3.1-1.4,3.1-3.1v-0.8 C119,118.4,117.6,117,115.9,117z"/> <path fill="#FFFFFF" d="M46.8,66.3h-0.6c-1.4,0-2.6,1.2-2.6,2.6v30.3c0,1.4,1.2,2.6,2.6,2.6h0.6c1.4,0,2.6-1.2,2.6-2.6V68.9 C49.4,67.5,48.2,66.3,46.8,66.3z"/> <path fill="#FFFFFF" d="M65.8,66.3h-0.6c-1.4,0-2.6,1.2-2.6,2.6v30.3c0,1.4,1.2,2.6,2.6,2.6h0.6c1.4,0,2.6-1.2,2.6-2.6V68.9 C68.4,67.5,67.3,66.3,65.8,66.3z"/> <path fill="#FFFFFF" d="M84.9,66.3h-0.6c-1.4,0-2.6,1.2-2.6,2.6v30.3c0,1.4,1.2,2.6,2.6,2.6h0.6c1.4,0,2.6-1.2,2.6-2.6V68.9 C87.5,67.5,86.3,66.3,84.9,66.3z"/> <path fill="#FFFFFF" d="M103.9,66.3h-0.6c-1.4,0-2.6,1.2-2.6,2.6v30.3c0,1.4,1.2,2.6,2.6,2.6h0.6c1.4,0,2.6-1.2,2.6-2.6V68.9 C106.5,67.5,105.4,66.3,103.9,66.3z"/> <path fill="none" stroke="#FFFFFF" stroke-width="5" stroke-miterlimit="10" d="M41.8,61h66.4c1.5,0,2.8-1.3,2.6-2.9 C109.6,42.3,98.1,31.3,83,28.5c-0.3-3.7-3.2-6.7-6.9-7.2v-4.1c0-0.6-0.5-1.1-1.1-1.1h0c-0.6,0-1.1,0.5-1.1,1.1v4.2 c-3.7,0.5-6.6,3.5-6.9,7.2C52,31.3,40.4,42.3,39.2,58.2C39.1,59.7,40.3,61,41.8,61z"/>
</g>
</svg>
