<?xml version="1.0" encoding="utf-8"?>
<svg version="1.1" xmlns="http://www.w3.org/2000/svg" x="0px" y="0px" viewBox="0 0 150 150" enable-background="new 0 0 150 150" xml:space="preserve">
<path fill="#78898F" d="M75,148c40.3,0,73-32.7,73-73c0-40.3-32.7-73-73-73S2,34.7,2,75C2,115.3,34.7,148,75,148"/>
<g>
	<path fill="#FFFFFF" d="M86.5,55.3c0.6,0,1.2-0.1,1.9-0.1c1.4-0.1,2.9-0.2,4.3-0.3c-0.3-0.8-0.7-1.6-1-2.4c-0.6-1.5-1.2-3-1.8-4.4 c-0.5-1.3-1-2.6-1.6-3.8c-0.1-0.2-0.1-0.4-0.2-0.5c1-0.8,2-1.6,3-2.5c2.2-1.8,4.5-3.6,6.7-5.5c0.5-0.4,1-0.8,1.5-1.2 c0.1-0.2,0.3-0.3,0.4-0.5c0.1-0.2,0.2-0.4,0.2-0.6c0.1-0.5,0.1-1.1-0.1-1.6c-0.4-0.9-1.2-1.4-2.2-1.5c-1.7-0.1-3.5-0.2-5.2-0.3 c-2.7-0.2-5.5-0.3-8.2-0.5c-0.1,0-0.2,0-0.3,0c-0.5-1.1-0.9-2.1-1.4-3.2c-1-2.3-2-4.6-3-6.9c-0.2-0.5-0.5-1-0.7-1.6 c-0.2-0.4-0.5-0.7-0.9-0.9c-0.4-0.2-0.8-0.3-1.2-0.3c-0.8,0-1.7,0.4-2.1,1.2c-0.7,1.4-1.3,2.9-2,4.3c-1,2.3-2.1,4.6-3.1,6.9 c-0.1,0.2-0.1,0.3-0.2,0.5c-1.2,0.1-2.4,0.2-3.5,0.2c-2.7,0.2-5.4,0.3-8.1,0.5c-0.6,0-1.2,0.1-1.9,0.1c-1,0.1-1.8,0.6-2.2,1.5 c-0.2,0.4-0.2,0.8-0.2,1.3c0.1,0.5,0.3,1.1,0.7,1.4c1.4,1.1,2.8,2.3,4.1,3.4c2.2,1.8,4.4,3.6,6.5,5.3c0.1,0.1,0.2,0.2,0.3,0.3 c0,0.1,0,0.1-0.1,0.2c-0.5,1.2-1,2.5-1.4,3.7c-0.6,1.5-1.2,3-1.7,4.5c-0.4,1-0.8,2.1-1.2,3.1l2.6,0.2c1.9,0.1,3.5,1.1,4.5,2.6 c0.1-0.1,0.2-0.1,0.4-0.2c1.4-0.8,2.9-1.7,4.3-2.5c1.2-0.7,2.5-1.4,3.7-2.1c0.2-0.1,0.4-0.2,0.6-0.3c0.1,0,0.2,0.1,0.2,0.1 c1.2,0.7,2.3,1.4,3.5,2c1,0.6,1.9,1.1,2.9,1.7C84.2,55.7,85.3,55.4,86.5,55.3z M77.9,47.6C77.9,47.6,77.9,47.6,77.9,47.6 c-0.8-0.4-1.7-0.4-2.5,0c-0.5,0.3-1,0.6-1.5,0.8c-1.2,0.7-2.3,1.4-3.5,2c-1.3,0.7-2.6,1.5-3.9,2.2c0.5-1.2,0.9-2.4,1.4-3.6 c0.5-1.3,1-2.6,1.5-3.9c0.2-0.6,0.5-1.3,0.7-1.9c0,0,0,0,0,0c0.3-0.7,0-1.9-0.6-2.3c-1.4-1.1-2.8-2.3-4.1-3.4 c-1.2-0.9-2.3-1.9-3.5-2.8c2.3-0.1,4.6-0.3,7-0.4c0.6,0,1.2-0.1,1.9-0.1c0.4,0,0.8-0.1,1.2-0.3c0.4-0.2,0.7-0.5,0.9-0.9 c0.7-1.4,1.3-2.9,2-4.3c0.6-1.3,1.2-2.5,1.7-3.8c1,2.2,1.9,4.4,2.9,6.5c0.2,0.5,0.5,1,0.7,1.6c0.2,0.4,0.5,0.7,0.9,0.9 c0.4,0.2,0.8,0.3,1.2,0.3c1.7,0.1,3.5,0.2,5.2,0.3c1.3,0.1,2.6,0.2,3.8,0.2c-2.1,1.7-4.2,3.5-6.4,5.2c-0.5,0.4-1,0.8-1.5,1.2 c-0.4,0.3-0.6,1-0.7,1.5c0,0.3,0,0.6,0.1,0.8c0.1,0.2,0.2,0.5,0.3,0.7c0.1,0.3,0.2,0.6,0.4,0.9c0.5,1.2,1,2.5,1.5,3.7 c0.5,1.3,1.1,2.6,1.6,3.9c-1-0.6-2.1-1.2-3.1-1.8c-1.2-0.7-2.5-1.4-3.7-2.1C79.1,48.3,78.5,48,77.9,47.6z"/> <path fill="#FFFFFF" d="M41.8,80.9c0.1,0,0.2,0.1,0.2,0.1c1.2,0.7,2.4,1.4,3.6,2.1c0.5,0.3,1,0.6,1.5,0.8c0.2,0,0.4,0,0.7,0 c3.4-0.2,6.8-0.4,10.2-0.7c-0.3-0.8-0.7-1.6-1-2.4c-0.6-1.5-1.2-3-1.8-4.5c-0.5-1.3-1.1-2.6-1.6-3.9c-0.1-0.2-0.1-0.4-0.2-0.5 c1-0.8,2-1.7,3.1-2.5c2.3-1.9,4.5-3.7,6.8-5.5c0.5-0.4,1-0.8,1.5-1.3c0.1-0.2,0.3-0.3,0.4-0.5c0.1-0.2,0.2-0.4,0.2-0.6 c0.1-0.5,0.1-1.1-0.1-1.6C64.8,59,64,58.5,63,58.4c-1.8-0.1-3.5-0.2-5.3-0.3c-2.8-0.2-5.6-0.4-8.3-0.5c-0.1,0-0.2,0-0.3,0 c-0.5-1.1-1-2.2-1.4-3.3c-1-2.3-2-4.6-3.1-7c-0.2-0.5-0.5-1.1-0.7-1.6c-0.2-0.4-0.5-0.7-0.9-0.9c-0.4-0.2-0.8-0.3-1.2-0.3 c-0.8,0-1.8,0.5-2.1,1.2c-0.7,1.5-1.3,2.9-2,4.4c-1.1,2.3-2.1,4.6-3.2,7c-0.1,0.2-0.2,0.3-0.2,0.5c-1.2,0.1-2.4,0.2-3.6,0.2 c-2.7,0.2-5.5,0.4-8.2,0.5c-0.6,0-1.3,0.1-1.9,0.1c-1,0.1-1.8,0.6-2.2,1.5c-0.2,0.4-0.2,0.8-0.2,1.3c0.1,0.5,0.3,1.1,0.7,1.4 c1.4,1.1,2.8,2.3,4.2,3.4c2.2,1.8,4.4,3.6,6.6,5.4c0.1,0.1,0.2,0.2,0.3,0.3c0,0.1,0,0.1-0.1,0.2c-0.5,1.3-1,2.5-1.5,3.8 c-0.6,1.5-1.2,3-1.8,4.6c-0.5,1.3-1,2.6-1.5,3.9c-0.2,0.6-0.5,1.3-0.7,1.9c0,0,0,0,0,0c0,0.2-0.1,0.4-0.1,0.7 c0,0.2,0.1,0.4,0.1,0.7c0.1,0.5,0.5,0.9,0.9,1.3c0.8,0.6,1.9,0.7,2.7,0.2c0.5-0.3,1-0.6,1.5-0.9c1.2-0.7,2.4-1.4,3.6-2.1 c1.4-0.8,2.9-1.7,4.3-2.5c1.2-0.7,2.5-1.4,3.7-2.2C41.4,81.1,41.6,81,41.8,80.9z M39.1,76.8c-1.2,0.7-2.4,1.4-3.6,2.1 c-1.3,0.8-2.6,1.5-3.9,2.3c0.5-1.2,0.9-2.4,1.4-3.6c0.5-1.3,1-2.6,1.5-3.9c0.2-0.6,0.5-1.3,0.7-1.9c0,0,0,0,0,0 c0.3-0.7,0-1.9-0.6-2.4c-1.4-1.1-2.8-2.3-4.2-3.4c-1.2-1-2.4-1.9-3.5-2.9c2.4-0.2,4.7-0.3,7.1-0.5c0.6,0,1.3-0.1,1.9-0.1 c0.4,0,0.9-0.1,1.2-0.3c0.4-0.2,0.7-0.5,0.9-0.9c0.7-1.5,1.3-2.9,2-4.4c0.6-1.3,1.2-2.6,1.8-3.9c1,2.2,1.9,4.4,2.9,6.6 c0.2,0.5,0.5,1.1,0.7,1.6c0.2,0.4,0.5,0.7,0.9,0.9c0.4,0.2,0.8,0.3,1.2,0.3c1.8,0.1,3.5,0.2,5.3,0.3c1.3,0.1,2.6,0.2,3.9,0.2 c-2.1,1.8-4.3,3.5-6.4,5.3c-0.5,0.4-1,0.8-1.5,1.3c-0.4,0.3-0.6,1-0.7,1.5c0,0.3,0,0.6,0.1,0.8c0.1,0.2,0.2,0.5,0.3,0.7 c0.1,0.3,0.3,0.6,0.4,0.9c0.5,1.2,1,2.5,1.5,3.7c0.5,1.3,1.1,2.6,1.6,3.9c-1.1-0.6-2.1-1.2-3.2-1.9c-1.2-0.7-2.5-1.4-3.7-2.2 c-0.6-0.4-1.2-0.7-1.8-1.1c0,0,0,0,0,0c-0.8-0.4-1.7-0.4-2.5,0C40.1,76.2,39.6,76.5,39.1,76.8z"/> <path fill="#FFFFFF" d="M104.8,89.5c-0.5-1.2-1.7-1.9-3-2c-2.3-0.1-4.7-0.3-7-0.4c-3.7-0.2-7.4-0.5-11.1-0.7c-0.1,0-0.2,0-0.4,0 c-0.6-1.4-1.3-2.9-1.9-4.3c-1.4-3.1-2.7-6.2-4.1-9.3c-0.3-0.7-0.6-1.4-0.9-2.1c-0.3-0.5-0.7-0.9-1.2-1.2c-0.5-0.3-1.1-0.4-1.6-0.4 c-1.1,0-2.3,0.6-2.8,1.6c-0.9,1.9-1.8,3.9-2.6,5.8c-1.4,3.1-2.8,6.2-4.2,9.3c-0.1,0.2-0.2,0.4-0.3,0.7c-1.6,0.1-3.2,0.2-4.8,0.3 c-3.6,0.2-7.3,0.5-10.9,0.7c-0.8,0.1-1.7,0.1-2.5,0.2c-1.3,0.1-2.4,0.7-3,2c-0.2,0.6-0.3,1.1-0.2,1.7c0.1,0.7,0.4,1.4,0.9,1.9 c1.9,1.5,3.7,3,5.6,4.5c2.9,2.4,5.9,4.8,8.8,7.2c0.1,0.1,0.3,0.2,0.5,0.4c0,0.1-0.1,0.1-0.1,0.2c-0.6,1.7-1.3,3.3-1.9,5 c-0.8,2-1.6,4-2.3,6.1c-0.7,1.8-1.4,3.5-2,5.2c-0.3,0.8-0.7,1.7-1,2.6c0,0,0,0,0,0c0,0.3-0.1,0.6-0.1,0.9c0,0.3,0.1,0.6,0.1,0.9 c0.2,0.7,0.6,1.3,1.2,1.7c1,0.8,2.5,0.9,3.6,0.3c0.7-0.4,1.3-0.8,2-1.1c1.6-0.9,3.2-1.8,4.7-2.8c1.9-1.1,3.8-2.2,5.8-3.4 c1.7-1,3.3-1.9,5-2.9c0.3-0.2,0.5-0.3,0.8-0.5c0.1,0.1,0.2,0.1,0.3,0.2c1.6,0.9,3.2,1.8,4.7,2.8c1.9,1.1,3.8,2.2,5.8,3.4 c1.7,1,3.3,1.9,5,2.9c0.8,0.5,1.6,1,2.4,1.4c0,0,0,0,0,0c1.1,0.7,2.6,0.5,3.6-0.3c0.5-0.4,0.8-0.8,1-1.3c0.3-0.6,0.4-1.5,0.2-2.1 c-0.3-0.7-0.6-1.4-0.8-2c-0.7-1.7-1.4-3.3-2-5c-0.8-2-1.6-4-2.4-6c-0.7-1.7-1.4-3.4-2.1-5.2c-0.1-0.2-0.2-0.5-0.3-0.7 c1.4-1.1,2.7-2.2,4.1-3.3c3-2.5,6-4.9,9-7.4c0.7-0.6,1.4-1.1,2-1.7c0.2-0.2,0.3-0.4,0.5-0.7c0.1-0.3,0.2-0.5,0.3-0.8 C105.1,90.9,105,90.2,104.8,89.5z M84.8,100.5c-0.7,0.6-1.4,1.1-2,1.7c-0.5,0.4-0.9,1.3-0.9,2c-0.1,0.4,0,0.8,0.1,1.1 c0.1,0.3,0.2,0.6,0.4,0.9c0.2,0.4,0.3,0.8,0.5,1.2c0.7,1.7,1.4,3.3,2,5c0.7,1.7,1.4,3.5,2.1,5.2c-1.4-0.8-2.8-1.6-4.2-2.5 c-1.7-1-3.3-1.9-5-2.9c-0.8-0.5-1.6-0.9-2.4-1.4c0,0,0,0,0,0c-1-0.6-2.3-0.6-3.3,0c-0.7,0.4-1.3,0.8-2,1.1 c-1.6,0.9-3.2,1.8-4.7,2.8c-1.7,1-3.5,2-5.2,3c0.6-1.6,1.3-3.2,1.9-4.8c0.7-1.8,1.4-3.5,2-5.2c0.3-0.8,0.7-1.7,1-2.6c0,0,0,0,0,0 c0.4-1,0-2.5-0.8-3.2c-1.9-1.5-3.7-3-5.6-4.5c-1.6-1.3-3.1-2.5-4.7-3.8c3.1-0.2,6.3-0.4,9.4-0.6c0.8-0.1,1.7-0.1,2.5-0.2 c0.6,0,1.1-0.1,1.6-0.4c0.5-0.3,0.9-0.7,1.2-1.2c0.9-1.9,1.8-3.9,2.6-5.8c0.8-1.7,1.6-3.4,2.3-5.1c1.3,2.9,2.6,5.9,3.9,8.8 c0.3,0.7,0.6,1.4,0.9,2.1c0.3,0.5,0.7,0.9,1.2,1.2c0.5,0.3,1.1,0.4,1.6,0.4c2.3,0.1,4.7,0.3,7,0.4c1.7,0.1,3.4,0.2,5.2,0.3 C90.5,95.8,87.6,98.2,84.8,100.5z"/> <path fill="#FFFFFF" d="M131.5,59.9c-0.4-0.9-1.2-1.4-2.2-1.5c-1.8-0.1-3.5-0.2-5.3-0.3c-2.8-0.2-5.6-0.4-8.3-0.5 c-0.1,0-0.2,0-0.3,0c-0.5-1.1-1-2.2-1.4-3.3c-1-2.3-2-4.6-3.1-7c-0.2-0.5-0.5-1.1-0.7-1.6c-0.2-0.4-0.5-0.7-0.9-0.9 c-0.4-0.2-0.8-0.3-1.2-0.3c-0.8,0-1.8,0.5-2.1,1.2c-0.7,1.5-1.3,2.9-2,4.4c-1.1,2.3-2.1,4.6-3.2,7c-0.1,0.2-0.2,0.3-0.2,0.5 c-1.2,0.1-2.4,0.2-3.6,0.2c-2.7,0.2-5.5,0.4-8.2,0.5c-0.6,0-1.3,0.1-1.9,0.1c-1,0.1-1.8,0.6-2.2,1.5c-0.2,0.4-0.2,0.8-0.2,1.3 c0.1,0.5,0.3,1.1,0.7,1.4c1.4,1.1,2.8,2.3,4.2,3.4c2.2,1.8,4.4,3.6,6.6,5.4c0.1,0.1,0.2,0.2,0.3,0.3c0,0.1,0,0.1-0.1,0.2 c-0.5,1.3-1,2.5-1.5,3.8c-0.6,1.5-1.2,3-1.8,4.6c-0.4,1.1-0.8,2.1-1.2,3.2L102,84c0.2,0,0.3,0,0.5,0.1c0.4-0.2,0.8-0.5,1.2-0.7 c1.2-0.7,2.5-1.4,3.7-2.2c0.2-0.1,0.4-0.2,0.6-0.4c0.1,0,0.2,0.1,0.2,0.1c1.2,0.7,2.4,1.4,3.6,2.1c1.4,0.8,2.9,1.7,4.3,2.5 c1.2,0.7,2.5,1.4,3.7,2.2c0.6,0.4,1.2,0.7,1.8,1.1c0,0,0,0,0,0c0.9,0.5,1.9,0.4,2.7-0.2c0.3-0.3,0.6-0.6,0.8-1 c0.2-0.5,0.3-1.1,0.1-1.6c-0.2-0.5-0.4-1-0.6-1.5c-0.5-1.2-1-2.5-1.5-3.7c-0.6-1.5-1.2-3-1.8-4.5c-0.5-1.3-1.1-2.6-1.6-3.9 c-0.1-0.2-0.1-0.4-0.2-0.5c1-0.8,2-1.7,3.1-2.5c2.3-1.9,4.5-3.7,6.8-5.5c0.5-0.4,1-0.8,1.5-1.3c0.1-0.2,0.3-0.3,0.4-0.5 c0.1-0.2,0.2-0.4,0.2-0.6C131.8,61,131.7,60.4,131.5,59.9z M116.5,68.2c-0.5,0.4-1,0.8-1.5,1.3c-0.4,0.3-0.6,1-0.7,1.5 c0,0.3,0,0.6,0.1,0.8c0.1,0.2,0.2,0.5,0.3,0.7c0.1,0.3,0.3,0.6,0.4,0.9c0.5,1.2,1,2.5,1.5,3.7c0.5,1.3,1.1,2.6,1.6,3.9 c-1.1-0.6-2.1-1.2-3.2-1.9c-1.2-0.7-2.5-1.4-3.7-2.2c-0.6-0.4-1.2-0.7-1.8-1.1c0,0,0,0,0,0c-0.8-0.4-1.7-0.4-2.5,0 c-0.5,0.3-1,0.6-1.5,0.9c-1.2,0.7-2.4,1.4-3.6,2.1c-1.3,0.8-2.6,1.5-3.9,2.3c0.5-1.2,0.9-2.4,1.4-3.6c0.5-1.3,1-2.6,1.5-3.9 c0.2-0.6,0.5-1.3,0.7-1.9c0,0,0,0,0,0c0.3-0.7,0-1.9-0.6-2.4c-1.4-1.1-2.8-2.3-4.2-3.4c-1.2-1-2.4-1.9-3.5-2.9 c2.4-0.2,4.7-0.3,7.1-0.5c0.6,0,1.3-0.1,1.9-0.1c0.4,0,0.9-0.1,1.2-0.3c0.4-0.2,0.7-0.5,0.9-0.9c0.7-1.5,1.3-2.9,2-4.4 c0.6-1.3,1.2-2.6,1.8-3.9c1,2.2,1.9,4.4,2.9,6.6c0.2,0.5,0.5,1.1,0.7,1.6c0.2,0.4,0.5,0.7,0.9,0.9c0.4,0.2,0.8,0.3,1.2,0.3 c1.8,0.1,3.5,0.2,5.3,0.3c1.3,0.1,2.6,0.2,3.9,0.2C120.7,64.7,118.6,66.4,116.5,68.2z"/>
</g>
</svg>
